<?xml version="1.0" encoding="utf-8"?>
<!-- Uploaded to: SVG Repo, www.svgrepo.com, Generator: SVG Repo Mixer Tools -->
<svg width="800px" height="800px" viewBox="0 0 1024 1024" class="icon"  version="1.1" xmlns="http://www.w3.org/2000/svg"><path d="M135.460571 18.285714h600.137143c67.949714 0 123.099429 53.613714 123.099429 119.954286v623.250286c0 21.650286-12.361143 51.565714-27.794286 67.291428l-111.030857 112.201143c-15.36 15.579429-45.348571 28.16-67.437714 28.16H142.116571c-67.876571 0-123.099429-53.76-123.099428-120.027428V134.729143C19.017143 70.144 71.021714 18.285714 135.460571 18.285714zM672.182857 899.657143l115.785143-117.101714c3.584-3.657143 7.094857-12.434286 7.094857-18.139429V138.166857a58.514286 58.514286 0 0 0-59.465143-57.490286H145.700571a62.756571 62.756571 0 0 0-63.122285 62.756572v705.682286c0 31.744 26.624 57.636571 59.465143 57.636571h512.731428a28.745143 28.745143 0 0 0 17.408-7.168z m-8.411428-217.819429l131.949714 1.462857c17.481143 0 31.744 13.897143 31.817143 31.232a31.451429 31.451429 0 0 1-31.817143 31.158858l-131.949714-1.462858c-7.826286 0-13.897143 5.851429-13.897143 13.165715v150.162285a31.451429 31.451429 0 0 1-31.817143 31.158858 31.451429 31.451429 0 0 1-31.817143-31.158858v-150.162285c0-41.910857 34.669714-75.556571 77.531429-75.556572z m-340.992-136.045714a26.404571 26.404571 0 0 1-18.797715 44.982857 26.624 26.624 0 0 1-18.724571-7.606857L162.230857 461.531429a26.404571 26.404571 0 0 1 0-37.449143L285.257143 302.372571c10.24-10.166857 27.209143-10.166857 37.522286 0 10.313143 10.24 10.313143 26.404571 0 37.449143L218.697143 442.806857 322.779429 545.645714z m232.082285-205.970286a26.404571 26.404571 0 0 1 0-37.449143c10.313143-10.166857 27.282286-10.166857 37.595429 0l123.026286 121.709715a26.404571 26.404571 0 0 1 0 37.449143L592.457143 583.168a26.624 26.624 0 0 1-18.797714 7.606857 26.404571 26.404571 0 0 1-18.797715-45.056L659.017143 442.806857 554.861714 339.821714zM505.417143 261.12c13.531429 4.973714 20.48 19.894857 16.091428 33.938286L406.966857 608.036571a26.916571 26.916571 0 0 1-34.011428 15.945143 26.185143 26.185143 0 0 1-16.237715-34.011428l114.541715-312.978286a26.916571 26.916571 0 0 1 34.157714-15.872z" fill="#000000" /></svg>